<svg width="30" height="29" viewBox="0 0 30 29" fill="none" xmlns="http://www.w3.org/2000/svg">
<g id="fluent:leaf-two-24-filled">
<path id="Vector" d="M4.97915 2.41663C3.84211 2.41663 2.91895 3.33858 2.91895 4.47683V9.66663C2.91931 11.3805 3.52665 13.0389 4.63326 14.3477C5.73987 15.6565 7.27424 16.5311 8.96424 16.8163C8.98034 14.8961 9.57077 13.0247 10.6595 11.4429L8.01569 8.79663C7.85561 8.62483 7.76847 8.39761 7.77261 8.16283C7.77675 7.92805 7.87186 7.70404 8.0379 7.538C8.20394 7.37196 8.42795 7.27685 8.66273 7.27271C8.89751 7.26856 9.12473 7.35571 9.29653 7.51579L11.8268 10.0448C13.248 8.63391 15.0733 7.70057 17.0492 7.37442C16.5675 5.9307 15.6439 4.67508 14.4091 3.78531C13.1743 2.89555 11.6909 2.41672 10.1689 2.41663H4.97915ZM12.0443 22.2176L9.22403 25.0354C9.13743 25.119 9.06835 25.2189 9.0208 25.3295C8.97325 25.44 8.9482 25.5589 8.9471 25.6793C8.94599 25.7996 8.96887 25.9189 9.01438 26.0303C9.0599 26.1417 9.12714 26.2429 9.21219 26.3281C9.29724 26.4132 9.39839 26.4805 9.50975 26.5262C9.6211 26.5718 9.74042 26.5948 9.86075 26.5938C9.98108 26.5928 10.1 26.5679 10.2106 26.5204C10.3212 26.473 10.4212 26.404 10.5049 26.3175L13.3263 23.4984C14.5688 24.4991 16.0691 25.1279 17.6538 25.3122C19.2385 25.4966 20.843 25.2289 22.282 24.5401C23.721 23.8514 24.9359 22.7696 25.7863 21.4198C26.6367 20.07 27.088 18.5072 27.088 16.9118V10.5705C27.088 10.0096 26.8652 9.47178 26.4687 9.07522C26.0721 8.67866 25.5343 8.45588 24.9734 8.45588H18.6297C17.0344 8.45611 15.4718 8.90755 14.1221 9.75805C12.7725 10.6086 11.6909 11.8234 11.0023 13.2624C10.3137 14.7014 10.0461 16.3059 10.2305 17.8904C10.4149 19.475 11.0437 20.9751 12.0443 22.2176ZM19.5674 17.261L14.6192 22.2091C14.1357 21.8424 13.7044 21.4115 13.3372 20.9283L18.2853 15.979C18.4553 15.809 18.6859 15.7134 18.9263 15.7134C19.1668 15.7134 19.3974 15.809 19.5674 15.979C19.7374 16.149 19.8329 16.3796 19.8329 16.62C19.8329 16.8604 19.7374 17.091 19.5674 17.261Z" fill="#008000"/>
</g>
</svg>
