<svg width="40" height="40" viewBox="0 0 40 40" fill="none" xmlns="http://www.w3.org/2000/svg">
<g id="mdi:cart">
<path id="Vector" d="M28.3334 30C26.4834 30 25.0001 31.4834 25.0001 33.3334C25.0001 34.2174 25.3513 35.0653 25.9764 35.6904C26.6015 36.3155 27.4494 36.6667 28.3334 36.6667C29.2175 36.6667 30.0653 36.3155 30.6904 35.6904C31.3156 35.0653 31.6667 34.2174 31.6667 33.3334C31.6667 32.4493 31.3156 31.6015 30.6904 30.9764C30.0653 30.3512 29.2175 30 28.3334 30ZM1.66675 3.33337V6.66671H5.00008L11.0001 19.3167L8.73341 23.4C8.48341 23.8667 8.33341 24.4167 8.33341 25C8.33341 25.8841 8.6846 26.7319 9.30973 27.3571C9.93485 27.9822 10.7827 28.3334 11.6667 28.3334H31.6667V25H12.3667C12.2562 25 12.1503 24.9561 12.0721 24.878C11.994 24.7999 11.9501 24.6939 11.9501 24.5834C11.9501 24.5 11.9667 24.4334 12.0001 24.3834L13.5001 21.6667H25.9167C27.1667 21.6667 28.2667 20.9667 28.8334 19.95L34.8001 9.16671C34.9167 8.90004 35.0001 8.61671 35.0001 8.33337C35.0001 7.89135 34.8245 7.46742 34.5119 7.15486C34.1994 6.8423 33.7754 6.66671 33.3334 6.66671H8.68341L7.11675 3.33337M11.6667 30C9.81675 30 8.33341 31.4834 8.33341 33.3334C8.33341 34.2174 8.6846 35.0653 9.30973 35.6904C9.93485 36.3155 10.7827 36.6667 11.6667 36.6667C12.5508 36.6667 13.3986 36.3155 14.0238 35.6904C14.6489 35.0653 15.0001 34.2174 15.0001 33.3334C15.0001 32.4493 14.6489 31.6015 14.0238 30.9764C13.3986 30.3512 12.5508 30 11.6667 30Z" fill="#008000"/>
</g>
</svg>
