<svg width="26" height="23" viewBox="0 0 26 23" fill="none" xmlns="http://www.w3.org/2000/svg">
<path id="Vector" d="M17.5707 4.37288L21.5073 8.28781C21.6731 8.45274 21.6731 8.72184 21.5073 8.88677L11.9756 18.3659L7.92556 18.813C7.38439 18.8738 6.92614 18.418 6.98724 17.8798L7.43676 13.852L16.9684 4.37288C17.1342 4.20795 17.4048 4.20795 17.5707 4.37288ZM24.6408 3.37896L22.511 1.2609C21.8477 0.601183 20.7697 0.601183 20.102 1.2609L18.557 2.79736C18.3911 2.96229 18.3911 3.23139 18.557 3.39632L22.4936 7.31125C22.6594 7.47618 22.93 7.47618 23.0959 7.31125L24.6408 5.77479C25.3042 5.11073 25.3042 4.03868 24.6408 3.37896ZM16.7589 15.7878V20.2062H2.79315V6.31733H12.8223C12.962 6.31733 13.0929 6.2609 13.1933 6.16542L14.939 4.42931C15.2707 4.09945 15.035 3.53955 14.568 3.53955H2.09486C0.938324 3.53955 0 4.47271 0 5.62288V20.9007C0 22.0508 0.938324 22.984 2.09486 22.984H17.4572C18.6137 22.984 19.552 22.0508 19.552 20.9007V14.0517C19.552 13.5873 18.9891 13.3573 18.6574 13.6828L16.9116 15.4189C16.8156 15.5187 16.7589 15.6489 16.7589 15.7878Z" fill="#171616"/>
</svg>
